<svg xmlns="http://www.w3.org/2000/svg" width="280" height="280" viewBox="0 0 280 280">
  <g id="グループ_1324" data-name="グループ 1324" transform="translate(-725 -1294)">
    <rect id="長方形_658" data-name="長方形 658" width="280" height="280" transform="translate(725 1294)" fill="#fff"/>
    <g id="グループ_1346" data-name="グループ 1346" transform="translate(-99.977 1233.49)">
      <g id="グループ_1345" data-name="グループ 1345">
        <g id="グループ_1327" data-name="グループ 1327">
          <path id="パス_2502" data-name="パス 2502" d="M1004.659,76.93l-9.572-5.42L881.977,137.323l46.043,26.07Z" fill="#8c6239"/>
          <g id="グループ_1326" data-name="グループ 1326">
            <path id="パス_2503" data-name="パス 2503" d="M881.977,137.323l4.6,127.863,8.209,5.8L928,161.659Z" fill="#8c6239"/>
            <path id="パス_2504" data-name="パス 2504" d="M881.977,137.323l4.6,127.863,8.209,5.8L928,161.659Z" opacity="0.3"/>
            <g id="グループ_1325" data-name="グループ 1325">
              <path id="パス_2505" data-name="パス 2505" d="M900.7,260.534l-2.109-113.99,30.48-19.329-.886,121.31Z" fill="#b4b5b2"/>
              <path id="パス_2506" data-name="パス 2506" d="M900.7,260.534l-2.109-113.99L998.742,87.379l1.23,115.543Z" fill="#c69c6d"/>
              <path id="パス_2507" data-name="パス 2507" d="M1006.037,206.418,1004.659,76.93,892.42,143.235l2.364,127.748ZM898.591,146.544,998.742,87.379l1.23,115.543L900.7,260.534Z" fill="#8c6239"/>
            </g>
          </g>
        </g>
        <path id="パス_2508" data-name="パス 2508" d="M908.617,159.081l.274,38.367,25.364-14.118-.273-38.195Z" fill="#f7f7f7"/>
        <path id="パス_2509" data-name="パス 2509" d="M915.078,148.148l.274,38.367L940.715,172.4l-.273-38.195Z" fill="#dadf00"/>
        <g id="グループ_1328" data-name="グループ 1328">
          <path id="パス_2510" data-name="パス 2510" d="M954.174,131.474l.218,30.453,20.132-11.206-.217-30.316Z" fill="#f7f7f7"/>
          <path id="パス_2511" data-name="パス 2511" d="M971.219,124.155l-.08,3.994-13.661,7.428.121-3.928Z" fill="#040000" opacity="0.1"/>
          <path id="パス_2512" data-name="パス 2512" d="M971.219,128.864l-.08,3.994-13.661,7.428.121-3.928Z" fill="#040000" opacity="0.1"/>
          <path id="パス_2513" data-name="パス 2513" d="M971.219,146.721l-.08,3.994-13.661,7.428.121-3.928Z" fill="#040000" opacity="0.1"/>
        </g>
        <g id="グループ_1329" data-name="グループ 1329">
          <path id="パス_2514" data-name="パス 2514" d="M964.174,133.073l.249,34.853L987.464,155.1l-.248-34.7Z" fill="#f7f7f7"/>
          <path id="パス_2515" data-name="パス 2515" d="M983.682,124.7l-.092,4.571-15.635,8.5.139-4.5Z" fill="#040000" opacity="0.1"/>
          <path id="パス_2516" data-name="パス 2516" d="M983.682,130.087l-.092,4.571-15.635,8.5.139-4.5Z" fill="#040000" opacity="0.1"/>
          <path id="パス_2517" data-name="パス 2517" d="M983.682,150.524l-.092,4.571-15.635,8.5.139-4.5Z" fill="#040000" opacity="0.1"/>
        </g>
        <g id="グループ_1330" data-name="グループ 1330">
          <path id="パス_2518" data-name="パス 2518" d="M901.516,202.45,911.7,246.408l25.475-22.726-10.138-43.761Z" fill="#f7f7f7"/>
          <path id="パス_2519" data-name="パス 2519" d="M923.789,186.344l1.178,5.8-17.344,15.166-1.1-5.718Z" fill="#040000" opacity="0.1"/>
          <path id="パス_2520" data-name="パス 2520" d="M925.315,193.153l1.178,5.8L909.149,214.12l-1.1-5.718Z" fill="#040000" opacity="0.1"/>
          <path id="パス_2521" data-name="パス 2521" d="M931.1,218.97l1.178,5.8-17.344,15.166-1.1-5.718Z" fill="#040000" opacity="0.1"/>
        </g>
        <g id="グループ_1331" data-name="グループ 1331">
          <path id="パス_2522" data-name="パス 2522" d="M939.482,167.078l-8.747,44.266,32.556-10.273L972,157Z" fill="#f7f7f7"/>
          <path id="パス_2523" data-name="パス 2523" d="M966.4,161.528,965.1,167.3l-22.04,6.715,1.345-5.665Z" fill="#040000" opacity="0.1"/>
          <path id="パス_2524" data-name="パス 2524" d="M965,168.364l-1.305,5.773-22.04,6.715L943,175.187Z" fill="#040000" opacity="0.1"/>
          <path id="パス_2525" data-name="パス 2525" d="M959.685,194.283l-1.305,5.773-22.04,6.715,1.345-5.665Z" fill="#040000" opacity="0.1"/>
        </g>
        <g id="グループ_1332" data-name="グループ 1332">
          <path id="パス_2526" data-name="パス 2526" d="M957.648,173.765l5.837,44.743,27.575-20.126-5.811-44.543Z" fill="#f7f7f7"/>
          <path id="パス_2527" data-name="パス 2527" d="M981.388,159.914l.606,5.888L963.25,179.2l-.533-5.8Z" fill="#040000" opacity="0.1"/>
          <path id="パス_2528" data-name="パス 2528" d="M982.241,166.84l.606,5.888-18.744,13.4-.533-5.8Z" fill="#040000" opacity="0.1"/>
          <path id="パス_2529" data-name="パス 2529" d="M985.477,193.1l.606,5.888-18.744,13.4-.533-5.8Z" fill="#040000" opacity="0.1"/>
        </g>
        <g id="グループ_1336" data-name="グループ 1336">
          <g id="グループ_1333" data-name="グループ 1333">
            <path id="パス_2530" data-name="パス 2530" d="M1017.078,276.05h0s-3.111,2.57-5.461,1.671-8.18-4.014-8.642-9.352c-.165-2.619.542-3.541,4.284-1.415s5.5,3.132,7.532,2.972S1017.077,276.049,1017.078,276.05Z" fill="#323338"/>
            <path id="パス_2531" data-name="パス 2531" d="M1033.508,267.9h0s-3.11,2.57-5.46,1.671-8.18-4.015-8.642-9.353c-.165-2.618.541-3.541,4.283-1.414s5.5,3.132,7.532,2.971S1033.508,267.9,1033.508,267.9Z" fill="#323338"/>
            <path id="パス_2532" data-name="パス 2532" d="M1009.492,223.988l25.322-5.486s-2.352,42.961-1.615,46.768c-2.23,2.1-5.337.64-5.661-.254s-3.7-30.334-3.907-34.107-1.43-3.8-2.513.107c0,0-4.313,40.787-4.173,43.282a5.084,5.084,0,0,1-7.073-.566C1009.175,272.7,1009.492,223.988,1009.492,223.988Z" fill="#4d4d4d"/>
            <path id="パス_2533" data-name="パス 2533" d="M1033.726,178.926s1.208,14.319-6.358,24.311c-.76.06-1.9.475-1.881.888a2,2,0,0,0,.441.925,4.594,4.594,0,0,0-1.024,2.584c.142,1.1,1.375,2.018,3.316.38s7.749-7.29,8.879-13.937c.861-5.062.63-12.211.47-15.332a1.058,1.058,0,0,0-1.507-.9Z" fill="#f6c3a5"/>
            <path id="パス_2534" data-name="パス 2534" d="M1020.724,168.421s-14.718,5.63-15,16.136-.225,13.133-.225,13.133a7.969,7.969,0,0,0,7.662-.028c-1.352,3.726-2.33,20.114-2.722,20.729-.565.884-.49,4.239-.49,4.239s4.782,4.475,15.91,2.28c8.292-1.811,10.307-8.439,10.307-8.439s-.611-30.88-1.37-32.551c.838-.495,2.677-5.033,2.575-5.836s-2.148-10.576-11.317-9.784C1024.027,168.456,1020.724,168.421,1020.724,168.421Z" fill="#52bf90"/>
            <path id="パス_2535" data-name="パス 2535" d="M1006.23,195.237s-.35,22.143-.148,23.926-1.31,8.239,1.078,8.205,3.154-1.614,3.22-3.81c.784.617,2.1-.244.5-1.419,0,0-.7-.275-.452-2.5s1.554-18.6,2.494-20.857-.018-2.138-.018-2.138Z" fill="#f6c3a5"/>
            <path id="パス_2536" data-name="パス 2536" d="M1013.4,197.664a7.969,7.969,0,0,1-7.663.029s-.054-2.628.225-13.134,15-16.136,15-16.136Z" fill="#52bf90"/>
          </g>
          <g id="グループ_1335" data-name="グループ 1335">
            <path id="パス_2537" data-name="パス 2537" d="M1018.709,159.351c1.321.044,2.758,2.108,2.869,2.05s.011-1.039.011-1.039a1.665,1.665,0,0,1,1.942-1.374,1.791,1.791,0,0,1,1.576,1.946,8.7,8.7,0,0,0,.688,3.9,1.365,1.365,0,0,0,1.265.743,8.618,8.618,0,0,1-7.17,3.848c-4.87-.052-8.772-4.352-8.716-9.6,0-.19.021-.376.033-.564a5.945,5.945,0,0,0,1.878.689C1014.927,160.231,1017.387,159.307,1018.709,159.351Z" fill="#f6c3a5"/>
            <path id="パス_2538" data-name="パス 2538" d="M1024.919,152.024a9.183,9.183,0,0,1,2.239,2.351A11.787,11.787,0,0,1,1024.919,152.024Z" fill="#f6c3a5"/>
            <path id="パス_2539" data-name="パス 2539" d="M1020.095,150.407a8.32,8.32,0,0,1,4.824,1.617,11.787,11.787,0,0,0,2.239,2.351,10.06,10.06,0,0,1-.1,11.2,1.365,1.365,0,0,1-1.265-.743,8.7,8.7,0,0,1-.688-3.9,1.791,1.791,0,0,0-1.576-1.946,1.665,1.665,0,0,0-1.942,1.374s.1.981-.011,1.039-1.548-2.006-2.869-2.05-3.782.88-5.624.593a5.945,5.945,0,0,1-1.878-.689C1011.532,154.272,1015.4,150.356,1020.095,150.407Z" fill="#5a4945"/>
            <g id="グループ_1334" data-name="グループ 1334">
              <path id="パス_2540" data-name="パス 2540" d="M1013.147,159.944c1.842.287,4.3-.636,5.624-.592s2.758,2.108,2.869,2.049.011-1.038.011-1.038a1.666,1.666,0,0,1,1.942-1.375,1.792,1.792,0,0,1,1.576,1.947,8.7,8.7,0,0,0,.688,3.9,1.346,1.346,0,0,0,1.206.737,8.616,8.616,0,0,1-7.173,3.853c-4.87-.052-8.772-4.352-8.716-9.6,0-.2.021-.4.035-.6A5.941,5.941,0,0,0,1013.147,159.944Z" fill="none"/>
              <path id="パス_2541" data-name="パス 2541" d="M1024.816,167.813" fill="#5a4945"/>
              <path id="パス_2542" data-name="パス 2542" d="M1022.174,169.09c-4.809.771-7.451-.95-8.668-2.761-.737-1.1,1.483-6.1-.359-6.385a5.941,5.941,0,0,1-1.938-.72c.34-4.969,4.2-8.868,8.886-8.817,4.871.052,8.773,4.351,8.716,9.6-.017,1.719.458,3.767-1.472,5.9A9.667,9.667,0,0,1,1022.174,169.09Z" fill="#5a4945"/>
              <path id="パス_2543" data-name="パス 2543" d="M1008.553,156.3a20.985,20.985,0,0,0,5.032-4.429c1.758-2.163,9.488-2.792,11.194-.057.045.073.094.138.14.207a8.32,8.32,0,0,0-4.824-1.617c-4.693-.051-8.563,3.865-8.888,8.848A5.145,5.145,0,0,1,1008.553,156.3Z" fill="#5a4945"/>
            </g>
          </g>
        </g>
        <g id="グループ_1339" data-name="グループ 1339">
          <path id="パス_2544" data-name="パス 2544" d="M930.919,327.049h0s-3.086,2.55-5.418,1.658-8.117-3.984-8.575-9.28c-.164-2.6.537-3.514,4.25-1.4s5.453,3.108,7.474,2.948S930.919,327.048,930.919,327.049Z" fill="#323338"/>
          <path id="パス_2545" data-name="パス 2545" d="M943.29,324.928h0s-3.086,2.55-5.417,1.658-8.118-3.983-8.576-9.28c-.164-2.6.537-3.514,4.25-1.4s5.454,3.108,7.474,2.949S943.29,324.927,943.29,324.928Z" fill="#323338"/>
          <path id="パス_2546" data-name="パス 2546" d="M922.372,292.292s.589,28.749.943,30.752,5.773.707,5.773.707S931.562,295,931.209,293,922.372,292.292,922.372,292.292Z" fill="#f8caa6"/>
          <path id="パス_2547" data-name="パス 2547" d="M933.063,291.864s3.191,26.454,3.7,28.268,5.389.121,5.389.121-.366-26.737-.876-28.551S933.063,291.864,933.063,291.864Z" fill="#f8caa6"/>
          <path id="パス_2548" data-name="パス 2548" d="M930.564,263.566c7.537-3.91,12.867-14.9,14.16-18.586s-.224-5.429-1.579-5.323-2.732,2.479-2.732,2.479-.756-.542-1.252-.438-.6,2.1-.419,3.361a36.516,36.516,0,0,1-10.653,11.24Z" fill="#f6c3a5"/>
          <path id="パス_2549" data-name="パス 2549" d="M918.366,243.042s-.707-12.371,7.541-15.788,15.317-3.181,17.2-.943,3.063,1.768,2.238,16.378c-2.4,1.458-2.621,1.723-3.063,4.772s-.795,8.483.972,17.408,4.684,20.324,4.065,25.8c-3.27,1.944-4.949,4.33-15.022,4.507s-13.521-2.651-13.521-2.651,2.21-31.194,4.242-36.054a16.542,16.542,0,0,0,2.563-8.925S918.926,244.279,918.366,243.042Z" fill="#118aeb"/>
          <g id="グループ_1337" data-name="グループ 1337">
            <path id="パス_2550" data-name="パス 2550" d="M918.721,240.275s.119,21.974.374,23.739-1.208,8.2,1.325,8.116,3.31-1.671,3.331-3.851c.846.6,2.221-.289.5-1.419,0,0-.754-.257-.535-2.469s1.237-18.483,2.185-20.747-.067-2.12-.067-2.12Z" fill="#f6c3a5"/>
            <circle id="楕円形_76" data-name="楕円形 76" cx="9.305" cy="9.305" r="9.305" transform="translate(922.133 205)" fill="#f6c3a5"/>
          </g>
          <path id="パス_2551" data-name="パス 2551" d="M925.583,247.549s-6.657-3.27-7.217-4.507c0,0-.707-12.371,7.541-15.788s15.317-3.181,17.2-.943,3.063,1.768,2.238,16.378c-2.4,1.458-2.621,1.723-3.063,4.772" fill="#118aeb"/>
          <g id="グループ_1338" data-name="グループ 1338">
            <path id="パス_2552" data-name="パス 2552" d="M969.206,212.076q.128.987.257,2.149v-.008" fill="#f6c3a5"/>
            <path id="パス_2553" data-name="パス 2553" d="M943.079,243.086c0-1.308-1.3-19.757-2.375-29.564A9.3,9.3,0,0,0,931.439,205a9.69,9.69,0,0,0-8.949,5.759c.826-.16,4.285-.314,4.949,5.3a37.52,37.52,0,0,1,.395,6.825c.022.009.045.015.067.024a4.923,4.923,0,0,1-1.906,3.9c4.036,1.385,4.58,1.694,3.653,8.807s-2.475,11.709,6.759,11.046C943.609,246.047,943.079,244.854,943.079,243.086Z" fill="#483a36"/>
          </g>
        </g>
        <g id="グループ_1344" data-name="グループ 1344">
          <g id="グループ_1343" data-name="グループ 1343">
            <g id="グループ_1340" data-name="グループ 1340">
              <path id="パス_2554" data-name="パス 2554" d="M990.137,319.054h0s-3.111,2.57-5.46,1.67-8.181-4.014-8.642-9.352c-.165-2.619.541-3.541,4.283-1.415s5.495,3.132,7.532,2.972S990.137,319.052,990.137,319.054Z" fill="#323338"/>
              <path id="パス_2555" data-name="パス 2555" d="M1006.567,310.9h0s-3.11,2.57-5.46,1.671-8.18-4.015-8.642-9.353c-.165-2.618.541-3.54,4.283-1.414s5.5,3.132,7.532,2.971S1006.567,310.9,1006.567,310.9Z" fill="#323338"/>
              <path id="パス_2556" data-name="パス 2556" d="M982.551,266.991l25.322-5.486s-2.351,42.961-1.615,46.769c-2.23,2.1-5.337.64-5.661-.255s-3.7-30.334-3.907-34.107-1.43-3.8-2.513.107c0,0-4.313,40.787-4.173,43.282a5.084,5.084,0,0,1-7.073-.566C982.234,315.7,982.551,266.991,982.551,266.991Z" fill="#d2c6a8"/>
              <path id="パス_2557" data-name="パス 2557" d="M1006.785,221.929s1.208,14.319-6.358,24.311c-.759.061-1.9.476-1.881.888a2,2,0,0,0,.441.925,4.594,4.594,0,0,0-1.024,2.584c.142,1.1,1.375,2.018,3.317.38s7.748-7.29,8.878-13.937c.861-5.062.63-12.211.47-15.332a1.059,1.059,0,0,0-1.507-.9Z" fill="#f6c3a5"/>
              <path id="パス_2558" data-name="パス 2558" d="M979.289,238.24s-.35,22.143-.147,23.926-1.311,8.239,1.077,8.205,3.154-1.613,3.22-3.81c.784.618,2.1-.244.5-1.419,0,0-.705-.275-.452-2.5s1.554-18.6,2.494-20.857-.018-2.138-.018-2.138Z" fill="#f6c3a5"/>
              <path id="パス_2559" data-name="パス 2559" d="M1010.432,221.087c-.1-.8-2.148-10.575-11.317-9.784-2.029.156-5.332.121-5.332.121s-14.718,5.63-15,16.136-.225,13.134-.225,13.134a7.87,7.87,0,0,0,3.657.961,7.986,7.986,0,0,0,3.96-.851c-1.328,3.962-2.289,19.982-2.677,20.59-.565.884-.49,4.24-.49,4.24s4.782,4.474,15.91,2.279c8.292-1.81,10.307-8.438,10.307-8.438s-.61-30.881-1.37-32.551C1008.7,226.428,1010.534,221.89,1010.432,221.087Z" fill="#e09048"/>
            </g>
            <g id="グループ_1342" data-name="グループ 1342">
              <path id="パス_2560" data-name="パス 2560" d="M992.768,203.354c1.321.044,2.758,2.108,2.869,2.05s.011-1.039.011-1.039a1.665,1.665,0,0,1,1.942-1.374,1.791,1.791,0,0,1,1.576,1.946,8.719,8.719,0,0,0,.688,3.9,1.367,1.367,0,0,0,1.265.742,8.618,8.618,0,0,1-7.17,3.848c-4.87-.052-8.772-4.351-8.716-9.6,0-.19.021-.376.033-.563a5.941,5.941,0,0,0,1.878.688C988.986,204.234,991.446,203.31,992.768,203.354Z" fill="#f6c3a5"/>
              <path id="パス_2561" data-name="パス 2561" d="M998.979,196.027a9.186,9.186,0,0,1,2.238,2.352A11.759,11.759,0,0,1,998.979,196.027Z" fill="#f6c3a5"/>
              <path id="パス_2562" data-name="パス 2562" d="M994.154,194.41a8.326,8.326,0,0,1,4.825,1.617,11.759,11.759,0,0,0,2.238,2.352,10.058,10.058,0,0,1-.1,11.2,1.367,1.367,0,0,1-1.265-.742,8.719,8.719,0,0,1-.688-3.9,1.791,1.791,0,0,0-1.576-1.946,1.665,1.665,0,0,0-1.942,1.374s.1.981-.011,1.039-1.548-2.006-2.869-2.05-3.782.88-5.624.593a5.941,5.941,0,0,1-1.878-.688C985.592,198.275,989.461,194.359,994.154,194.41Z" fill="#5a4945"/>
              <g id="グループ_1341" data-name="グループ 1341">
                <path id="パス_2563" data-name="パス 2563" d="M987.206,203.947c1.842.287,4.3-.636,5.624-.592s2.758,2.108,2.869,2.05.011-1.039.011-1.039a1.666,1.666,0,0,1,1.942-1.375,1.792,1.792,0,0,1,1.576,1.947,8.7,8.7,0,0,0,.688,3.9,1.344,1.344,0,0,0,1.206.737,8.616,8.616,0,0,1-7.173,3.853c-4.87-.052-8.772-4.351-8.716-9.6,0-.2.021-.4.035-.6A5.94,5.94,0,0,0,987.206,203.947Z" fill="none"/>
                <path id="パス_2564" data-name="パス 2564" d="M998.875,211.816" fill="#5a4945"/>
                <path id="パス_2565" data-name="パス 2565" d="M996.233,213.093c-4.809.772-3.957-5.279-5.174-7.09a5.331,5.331,0,0,0-3.853-2.056,5.94,5.94,0,0,1-1.938-.72c.34-4.969,4.2-8.868,8.886-8.817,4.871.052,8.773,4.352,8.716,9.6-.017,1.719.458,3.767-1.472,5.905A9.661,9.661,0,0,1,996.233,213.093Z" fill="#5a4945"/>
              </g>
            </g>
          </g>
          <circle id="楕円形_77" data-name="楕円形 77" cx="4" cy="4" r="4" transform="translate(997.266 196.283)" fill="#5a4945"/>
        </g>
      </g>
      <path id="パス_2566" data-name="パス 2566" d="M1004.659,76.93l-9.572-5.42L881.977,137.323,892,143Z" fill="#fff" opacity="0.15"/>
    </g>
  </g>
</svg>
