<svg id="グループ_1293" data-name="グループ 1293" xmlns="http://www.w3.org/2000/svg" width="593.353" height="541.485" viewBox="0 0 593.353 541.485">
  <path id="パス_2482" data-name="パス 2482" d="M819.041,186.519H901.6s10.214,2.553,11.916-11.065,3.4-32.344,3.4-32.344,5.107-8.512-11.916-24.684S874.792,88.21,874.792,88.21s-3.83-7.235-23.407-7.235h-44.26s-14.353-2.536-13.619,13.619c.851,18.726.851,28.088.851,28.088s.851,16.172-3.4,16.172-5.107,1.7-5.107,10.214-5.958,10.214-12.767,10.214-11.065-2.553-13.619,12.767-6.809,28.94,3.4,31.493c15.321,1.7,19.577,1.7,19.577,1.7s11.916,3.4,13.619-6.809S802.018,186.519,819.041,186.519Z" transform="translate(-324.29 -80.83)" fill="#52bf90"/>
  <path id="パス_2483" data-name="パス 2483" d="M851,232" transform="translate(-338.375 -103.33)" fill="#52bf90"/>
  <path id="パス_2484" data-name="パス 2484" d="M732.383,255.9h28.94s13.619,1.7,13.619-9.363,5.107-11.065,10.214-11.065h28.088s11.065-2.553,9.363,12.767l-28.94,246.837s-1.7,11.065-8.512,11.065-23.833,2.553-22.981-7.66,5.107-17.874-7.66-17.874H671.1s-11.916-4.256-13.619,11.916.851,27.237-12.767,27.237H597.048s-11.916,2.553-10.214-9.363,14.47-36.6-5.958-36.6H475.332s-11.065.851-9.363-10.214,5.107-47.665,5.107-47.665,1.277-25.109,43.835-26.812,98.735-1.7,98.735-1.7,10.214,1.7,12.767-8.512-.851-15.321,17.874-15.321,13.619,7.66,13.619,12.767-5.958,11.916,16.172,11.916,21.279,0,23.833-19.577,11.916-103.842,11.916-103.842S709.827,255.474,732.383,255.9Z" transform="translate(-281.041 -103.823)" fill="#52bf90" stroke="#52bf90" stroke-miterlimit="10" stroke-width="1"/>
  <ellipse id="楕円形_67" data-name="楕円形 67" cx="8.268" cy="6.809" rx="8.268" ry="6.809" transform="translate(372.183 230.81)" fill="#52bf90"/>
  <path id="パス_2485" data-name="パス 2485" d="M473.42,545.97h74.9s13.619-2.553,12.767,11.916-4.256,40.856-4.256,40.856,4.256,11.065-12.767,11.065H464.058s-11.916,3.4-11.065-10.214,5.107-40.856,5.107-40.856S458.1,545.97,473.42,545.97Z" transform="translate(-279.13 -150.034)" fill="#52bf90"/>
  <path id="パス_2486" data-name="パス 2486" d="M401.874,584.886l17.874-126.823S423.153,447,407.832,447H308.246s-12.767-.851-14.47,10.214-6.809,45.112-6.809,45.112-1.7,11.065,5.107,11.916,11.491-.426,12.342-8.937,13.619-6.809,13.619-6.809,9.363-.851,9.363,8.512-8.512,74.9-8.512,74.9-3.4,13.619,8.512,13.619h63.837S399.746,597.228,401.874,584.886Z" transform="translate(-254.398 -135.327)" fill="#52bf90"/>
  <path id="パス_2487" data-name="パス 2487" d="M267.686,650.981h9.363s7.66-1.7,6.809,8.512-4.256,39.154-4.256,39.154.851,8.512-9.363,8.512H255.77s-8.512,0-6.809-10.214,5.107-36.6,5.107-36.6,0-9.363,7.66-9.363Z" transform="translate(-248.736 -165.674)" fill="#52bf90"/>
  <path id="パス_2488" data-name="パス 2488" d="M844.456,444h-82.88s-14.215.287-16.172,6.809a110.013,110.013,0,0,0-3.4,14.47" transform="translate(-322.151 -134.883)" fill="none" stroke="#fff" stroke-miterlimit="10" stroke-width="4"/>
  <path id="パス_2489" data-name="パス 2489" d="M766.623,517.516S782.8,469,757.26,469h-73.2s-23.833,0-26.386,26.386c-3.051,31.53-7.582,59.581-7.582,59.581" transform="translate(-308.472 -138.604)" fill="none" stroke="#fff" stroke-miterlimit="10" stroke-width="4"/>
  <path id="パス_2490" data-name="パス 2490" d="M621.866,414.558l-6.955,52.3s-4.256,17.874,11.916,17.874h25.861" transform="translate(-303.161 -130.501)" fill="none" stroke="#fff" stroke-miterlimit="10" stroke-width="4"/>
  <line id="線_48" data-name="線 48" x1="12.876" y2="85.721" transform="translate(256.614 284.679)" fill="none" stroke="#fff" stroke-miterlimit="10" stroke-width="4"/>
  <path id="パス_2491" data-name="パス 2491" d="M742.386,359.974H774.4s17.023-2.553,14.47,13.619-7.66,45.112-7.66,45.112-2.553,12.767,7.66,12.767" transform="translate(-322.209 -122.355)" fill="none" stroke="#fff" stroke-miterlimit="10" stroke-width="4"/>
</svg>
