<svg id="天気" xmlns="http://www.w3.org/2000/svg" width="35" height="35" viewBox="0 0 35 35">
  <g id="wb_sunny-24px">
    <path id="パス_2306" data-name="パス 2306" d="M0,0H24V24H0Z" fill="none"/>
    <path id="パス_2307" data-name="パス 2307" d="M6.05,4.14l-.39-.39a.993.993,0,0,0-1.4,0l-.01.01a.984.984,0,0,0,0,1.4l.39.39a.984.984,0,0,0,1.4,0l.01-.01a.984.984,0,0,0,0-1.4ZM3.01,10.5H1.99a.986.986,0,0,0-.99.99v.01a.986.986,0,0,0,.99.99H3a.974.974,0,0,0,1-.98V11.5A.988.988,0,0,0,3.01,10.5Zm9-9.95H12a.988.988,0,0,0-1,.99V2.5a.986.986,0,0,0,.99.99H12a.974.974,0,0,0,1-.98V1.54A.986.986,0,0,0,12.01.55Zm7.74,3.21a1,1,0,0,0-1.41-.01l-.39.39a.984.984,0,0,0,0,1.4l.01.01a.984.984,0,0,0,1.4,0l.39-.39a.984.984,0,0,0,0-1.4Zm-1.81,15.1.39.39a1,1,0,0,0,1.41-1.41l-.39-.39a1,1,0,0,0-1.41,1.41ZM20,11.49v.01a.986.986,0,0,0,.99.99H22a.986.986,0,0,0,.99-.99v-.01A.986.986,0,0,0,22,10.5H20.99A.986.986,0,0,0,20,11.49ZM12,5.5a6,6,0,1,0,6,6A6,6,0,0,0,12,5.5Zm-.01,16.95H12a.986.986,0,0,0,.99-.99V20.5a.986.986,0,0,0-.99-.99h-.01a.986.986,0,0,0-.99.99v.96A.986.986,0,0,0,11.99,22.45ZM4.25,19.24a1,1,0,0,0,1.41,0l.39-.39a.993.993,0,0,0,0-1.4l-.01-.01a1,1,0,0,0-1.41,0l-.39.39A1,1,0,0,0,4.25,19.24Z" fill="#fa7070"/>
  </g>
  <g id="cloud-24px" transform="translate(11 11)">
    <path id="パス_2308" data-name="パス 2308" d="M0,0H24V24H0Z" fill="none"/>
    <path id="パス_2309" data-name="パス 2309" d="M19.35,10.04a7.492,7.492,0,0,0-14-2A6,6,0,0,0,6,20H19a4.986,4.986,0,0,0,.35-9.96Z" fill="#93918f"/>
  </g>
</svg>
