<svg id="グループ_1266" data-name="グループ 1266" xmlns="http://www.w3.org/2000/svg" width="25.052" height="26.322" viewBox="0 0 25.052 26.322">
  <g id="グループ_1143" data-name="グループ 1143">
    <ellipse id="楕円形_53" data-name="楕円形 53" cx="11.232" cy="3.861" rx="11.232" ry="3.861" transform="translate(1.05 14.388)" fill="#52bf90"/>
    <ellipse id="楕円形_54" data-name="楕円形 54" cx="11.181" cy="3.956" rx="11.181" ry="3.956" transform="translate(8.57 22.362) rotate(-90)" fill="#52bf90"/>
    <ellipse id="楕円形_55" data-name="楕円形 55" cx="11.181" cy="3.956" rx="11.181" ry="3.956" transform="matrix(-0.766, 0.643, -0.643, -0.766, 23.978, 7.369)" fill="#52bf90"/>
    <ellipse id="楕円形_56" data-name="楕円形 56" cx="11.181" cy="3.956" rx="11.181" ry="3.956" transform="matrix(0.766, 0.643, -0.643, 0.766, 6.16, 1.307)" fill="#52bf90"/>
    <ellipse id="楕円形_57" data-name="楕円形 57" cx="11.181" cy="3.956" rx="11.181" ry="3.956" transform="matrix(-0.921, 0.391, -0.391, -0.921, 25.052, 14.238)" fill="#52bf90"/>
    <ellipse id="楕円形_58" data-name="楕円形 58" cx="11.181" cy="3.956" rx="11.181" ry="3.956" transform="matrix(0.921, 0.391, -0.391, 0.921, 3.092, 6.955)" fill="#52bf90"/>
  </g>
  <g id="グループ_1165" data-name="グループ 1165" transform="translate(10.878 11.58)">
    <rect id="長方形_449" data-name="長方形 449" width="3.51" height="14.742" rx="1.755" fill="#52bf90"/>
  </g>
</svg>
