<svg xmlns="http://www.w3.org/2000/svg" width="35.687" height="37.496" viewBox="0 0 35.687 37.496">
  <g id="グループ_1219" data-name="グループ 1219" transform="translate(-484 -304.504)">
    <g id="グループ_1143" data-name="グループ 1143" transform="translate(484 304.504)">
      <ellipse id="楕円形_53" data-name="楕円形 53" cx="16" cy="5.5" rx="16" ry="5.5" transform="translate(1.495 20.496)" fill="#52bf90"/>
      <ellipse id="楕円形_54" data-name="楕円形 54" cx="15.927" cy="5.636" rx="15.927" ry="5.636" transform="translate(12.208 31.854) rotate(-90)" fill="#52bf90"/>
      <ellipse id="楕円形_55" data-name="楕円形 55" cx="15.927" cy="5.636" rx="15.927" ry="5.636" transform="matrix(-0.766, 0.643, -0.643, -0.766, 34.157, 10.497)" fill="#52bf90"/>
      <ellipse id="楕円形_56" data-name="楕円形 56" cx="15.927" cy="5.636" rx="15.927" ry="5.636" transform="matrix(0.766, 0.643, -0.643, 0.766, 8.775, 1.862)" fill="#52bf90"/>
      <ellipse id="楕円形_57" data-name="楕円形 57" cx="15.927" cy="5.636" rx="15.927" ry="5.636" transform="matrix(-0.921, 0.391, -0.391, -0.921, 35.687, 20.282)" fill="#52bf90"/>
      <ellipse id="楕円形_58" data-name="楕円形 58" cx="15.927" cy="5.636" rx="15.927" ry="5.636" transform="matrix(0.921, 0.391, -0.391, 0.921, 4.404, 9.907)" fill="#52bf90"/>
    </g>
    <g id="グループ_1165" data-name="グループ 1165" transform="translate(342.137 -29.359)">
      <rect id="長方形_449" data-name="長方形 449" width="5" height="21" rx="2.5" transform="translate(157.359 350.359)" fill="#52bf90"/>
    </g>
  </g>
</svg>
