<svg xmlns="http://www.w3.org/2000/svg" width="138.996" height="37.496" viewBox="0 0 138.996 37.496">
  <g id="グループ_1223" data-name="グループ 1223" transform="translate(-44 -24.504)">
    <g id="グループ_1222" data-name="グループ 1222">
      <text id="Parkr" transform="translate(93.496 56)" fill="#52bf90" stroke="#52bf90" stroke-width="1.5" font-size="31" font-family="HiraMaruProN-W4, Hiragino Maru Gothic ProN" letter-spacing="0.016em"><tspan x="0" y="0">P</tspan><tspan y="0" letter-spacing="0.025em">a</tspan><tspan y="0" letter-spacing="0.061em">r</tspan><tspan y="0" letter-spacing="0.051em">k</tspan><tspan y="0" letter-spacing="0.068em">r</tspan></text>
      <g id="グループ_1143" data-name="グループ 1143" transform="translate(44 24.504)">
        <ellipse id="楕円形_53" data-name="楕円形 53" cx="16" cy="5.5" rx="16" ry="5.5" transform="translate(1.495 20.496)" fill="#52bf90"/>
        <ellipse id="楕円形_54" data-name="楕円形 54" cx="15.927" cy="5.636" rx="15.927" ry="5.636" transform="translate(12.208 31.854) rotate(-90)" fill="#52bf90"/>
        <ellipse id="楕円形_55" data-name="楕円形 55" cx="15.927" cy="5.636" rx="15.927" ry="5.636" transform="matrix(-0.766, 0.643, -0.643, -0.766, 34.157, 10.497)" fill="#52bf90"/>
        <ellipse id="楕円形_56" data-name="楕円形 56" cx="15.927" cy="5.636" rx="15.927" ry="5.636" transform="matrix(0.766, 0.643, -0.643, 0.766, 8.775, 1.862)" fill="#52bf90"/>
        <ellipse id="楕円形_57" data-name="楕円形 57" cx="15.927" cy="5.636" rx="15.927" ry="5.636" transform="matrix(-0.921, 0.391, -0.391, -0.921, 35.687, 20.282)" fill="#52bf90"/>
        <ellipse id="楕円形_58" data-name="楕円形 58" cx="15.927" cy="5.636" rx="15.927" ry="5.636" transform="matrix(0.921, 0.391, -0.391, 0.921, 4.404, 9.907)" fill="#52bf90"/>
      </g>
    </g>
    <g id="グループ_1165" data-name="グループ 1165" transform="translate(-97.863 -309.359)">
      <rect id="長方形_449" data-name="長方形 449" width="5" height="21" rx="2.5" transform="translate(157.359 350.359)" fill="#52bf90"/>
    </g>
  </g>
</svg>
