<svg id="location_on-24px_2_" data-name="location_on-24px (2)" xmlns="http://www.w3.org/2000/svg" width="37.646" height="38.555" viewBox="0 0 37.646 38.555">
  <ellipse id="楕円形_68" data-name="楕円形 68" cx="10.214" cy="6.384" rx="10.214" ry="6.384" transform="translate(7.004 24.228)" fill="#5c5c5c" opacity="0.658"/>
  <rect id="長方形_653" data-name="長方形 653" width="14.47" height="11.065" transform="translate(10.409 6.353)" fill="#fff"/>
  <path id="パス_2492" data-name="パス 2492" d="M0,0H37.646V37.646H0Z" transform="translate(0 0.909)" fill="none"/>
  <path id="パス_2493" data-name="パス 2493" d="M15.98,2A10.972,10.972,0,0,0,5,12.98c0,6.541,6.933,15.56,9.788,19a1.557,1.557,0,0,0,2.4,0c2.839-3.435,9.772-12.455,9.772-19A10.972,10.972,0,0,0,15.98,2Zm0,14.9A3.921,3.921,0,1,1,19.9,12.98,3.923,3.923,0,0,1,15.98,16.9Z" transform="translate(0.997 -2)" fill="#e04343"/>
</svg>
